<?xml version="1.0" encoding="utf-8"?>
<!-- Generator: Adobe Illustrator 21.0.0, SVG Export Plug-In . SVG Version: 6.00 Build 0)  -->
<svg version="1.1" id="Layer_1" xmlns="http://www.w3.org/2000/svg" xmlns:xlink="http://www.w3.org/1999/xlink" x="0px" y="0px"
	 viewBox="0 0 512 512" style="enable-background:new 0 0 512 512;" xml:space="preserve">
<g>
	<path d="M256,0c-15.2,0-30.4,5.8-41.8,17.2l-2.5,3.1L20.3,211.7l-3.1,2.5c-22.9,22.9-22.9,60.8,0,83.7l196.9,196.9
		c22.9,22.9,60.8,22.9,83.7,0l196.9-196.9c22.9-22.9,22.9-60.8,0-83.7L297.8,17.2C286.4,5.8,271.2,0,256,0z M256,39.4
		c5,0,10.2,1.6,14.2,5.5l196.9,196.9c7.8,7.8,7.8,20.5,0,28.3L270.2,467.1c-7.8,7.8-20.5,7.8-28.3,0L44.9,270.2
		c-7.8-7.8-7.8-20.5,0-28.3L241.8,44.9C245.8,41,251,39.4,256,39.4z M275.7,157.6v59.1h-78.8c-21.8,0-39.4,17.6-39.4,39.4v59.1h39.4
		V256h78.8v59.1l78.8-78.8L275.7,157.6z"/>
</g>
</svg>
